<?xml version="1.0" encoding="UTF-8"?>
<svg width="400" height="400" viewBox="0 0 400 400" fill="none" xmlns="http://www.w3.org/2000/svg">
  <path d="M200 350C282.843 350 350 282.843 350 200C350 117.157 282.843 50 200 50C117.157 50 50 117.157 50 200C50 282.843 117.157 350 200 350Z" fill="#E8F3DB"/>
  <path d="M180 140C180 134.477 184.477 130 190 130H210C215.523 130 220 134.477 220 140V220C220 225.523 215.523 230 210 230H190C184.477 230 180 225.523 180 220V140Z" fill="#556B2F"/>
  <path d="M180 260C180 254.477 184.477 250 190 250H210C215.523 250 220 254.477 220 260V280C220 285.523 215.523 290 210 290H190C184.477 290 180 285.523 180 280V260Z" fill="#556B2F"/>
</svg>
